<svg width="48" height="48" viewBox="0 0 48 48" fill="none" xmlns="http://www.w3.org/2000/svg">
<path fill-rule="evenodd" clip-rule="evenodd" d="M24 8C19.6547 8 19.1098 8.01842 17.4032 8.09628C15.7002 8.17396 14.5371 8.44446 13.5194 8.84001C12.4673 9.24884 11.575 9.79593 10.6854 10.6854C9.79593 11.575 9.24884 12.4673 8.84001 13.5194C8.44446 14.5371 8.17396 15.7002 8.09628 17.4032C8.01842 19.1098 8 19.6547 8 24C8 28.3453 8.01842 28.8902 8.09628 30.5968C8.17396 32.2998 8.44446 33.4629 8.84001 34.4806C9.24884 35.5327 9.79593 36.425 10.6854 37.3146C11.575 38.2041 12.4673 38.7512 13.5194 39.1601C14.5371 39.5555 15.7002 39.826 17.4032 39.9037C19.1098 39.9816 19.6547 40 24 40C28.3453 40 28.8902 39.9816 30.5968 39.9037C32.2998 39.826 33.4629 39.5555 34.4806 39.1601C35.5327 38.7512 36.425 38.2041 37.3146 37.3146C38.2041 36.425 38.7512 35.5327 39.1601 34.4806C39.5555 33.4629 39.826 32.2998 39.9037 30.5968C39.9816 28.8902 40 28.3453 40 24C40 19.6547 39.9816 19.1098 39.9037 17.4032C39.826 15.7002 39.5555 14.5371 39.1601 13.5194C38.7512 12.4673 38.2041 11.575 37.3146 10.6854C36.425 9.79593 35.5327 9.24884 34.4806 8.84001C33.4629 8.44446 32.2998 8.17396 30.5968 8.09628C28.8902 8.01842 28.3453 8 24 8ZM24 10.8829C28.2722 10.8829 28.7782 10.8992 30.4654 10.9762C32.0254 11.0473 32.8725 11.308 33.4363 11.5271C34.1832 11.8173 34.7162 12.164 35.276 12.724C35.836 13.2838 36.1827 13.8168 36.4729 14.5637C36.692 15.1275 36.9527 15.9746 37.0238 17.5346C37.1008 19.2218 37.1171 19.7278 37.1171 24C37.1171 28.2722 37.1008 28.7782 37.0238 30.4654C36.9527 32.0254 36.692 32.8725 36.4729 33.4363C36.1827 34.1832 35.836 34.7162 35.276 35.276C34.7162 35.836 34.1832 36.1827 33.4363 36.4729C32.8725 36.692 32.0254 36.9527 30.4654 37.0238C28.7785 37.1008 28.2725 37.1171 24 37.1171C19.7275 37.1171 19.2216 37.1008 17.5346 37.0238C15.9746 36.9527 15.1275 36.692 14.5637 36.4729C13.8168 36.1827 13.2838 35.836 12.724 35.276C12.1641 34.7162 11.8173 34.1832 11.5271 33.4363C11.308 32.8725 11.0473 32.0254 10.9762 30.4654C10.8992 28.7782 10.8829 28.2722 10.8829 24C10.8829 19.7278 10.8992 19.2218 10.9762 17.5346C11.0473 15.9746 11.308 15.1275 11.5271 14.5637C11.8173 13.8168 12.164 13.2838 12.724 12.724C13.2838 12.164 13.8168 11.8173 14.5637 11.5271C15.1275 11.308 15.9746 11.0473 17.5346 10.9762C19.2218 10.8992 19.7278 10.8829 24 10.8829Z" fill="#252525"/>
<path d="M17.4032 8.09628L17.426 8.59577L17.426 8.59576L17.4032 8.09628ZM13.5194 8.84001L13.7005 9.30606L13.7005 9.30605L13.5194 8.84001ZM10.6854 10.6854L10.3319 10.3319L10.3319 10.3319L10.6854 10.6854ZM8.84001 13.5194L9.30605 13.7005L9.30606 13.7005L8.84001 13.5194ZM8.09628 17.4032L8.59576 17.426L8.59577 17.426L8.09628 17.4032ZM8.09628 30.5968L8.59577 30.574L8.59576 30.574L8.09628 30.5968ZM8.84001 34.4806L9.30606 34.2995L9.30605 34.2995L8.84001 34.4806ZM10.6854 37.3146L10.3319 37.6681L10.3319 37.6681L10.6854 37.3146ZM13.5194 39.1601L13.3383 39.6261L13.3383 39.6261L13.5194 39.1601ZM17.4032 39.9037L17.426 39.4042H17.426L17.4032 39.9037ZM30.5968 39.9037L30.574 39.4042H30.574L30.5968 39.9037ZM34.4806 39.1601L34.6617 39.6261L34.6617 39.6261L34.4806 39.1601ZM37.3146 37.3146L37.6681 37.6681L37.6681 37.6681L37.3146 37.3146ZM39.1601 34.4806L39.6261 34.6617L39.6261 34.6617L39.1601 34.4806ZM39.9037 30.5968L39.4042 30.574V30.574L39.9037 30.5968ZM39.9037 17.4032L39.4042 17.426V17.426L39.9037 17.4032ZM39.1601 13.5194L39.6261 13.3383L39.6261 13.3383L39.1601 13.5194ZM37.3146 10.6854L37.6681 10.3319L37.6681 10.3319L37.3146 10.6854ZM34.4806 8.84001L34.2995 9.30605L34.2995 9.30606L34.4806 8.84001ZM30.5968 8.09628L30.574 8.59576L30.574 8.59577L30.5968 8.09628ZM30.4654 10.9762L30.4426 11.4757L30.4426 11.4757L30.4654 10.9762ZM33.4363 11.5271L33.2552 11.9931L33.2552 11.9931L33.4363 11.5271ZM35.276 12.724L34.9225 13.0775L34.9225 13.0775L35.276 12.724ZM36.4729 14.5637L36.0069 14.7448L36.0069 14.7448L36.4729 14.5637ZM37.0238 17.5346L36.5243 17.5574L36.5243 17.5574L37.0238 17.5346ZM37.0238 30.4654L36.5243 30.4426L36.5243 30.4426L37.0238 30.4654ZM36.4729 33.4363L36.0069 33.2552L36.0069 33.2552L36.4729 33.4363ZM35.276 35.276L34.9225 34.9225L34.9225 34.9225L35.276 35.276ZM33.4363 36.4729L33.2552 36.0069L33.2552 36.0069L33.4363 36.4729ZM30.4654 37.0238L30.4426 36.5243L30.4426 36.5243L30.4654 37.0238ZM17.5346 37.0238L17.5574 36.5243L17.5574 36.5243L17.5346 37.0238ZM14.5637 36.4729L14.7448 36.0069L14.7448 36.0069L14.5637 36.4729ZM12.724 35.276L13.0775 34.9225L13.0775 34.9225L12.724 35.276ZM11.5271 33.4363L11.9931 33.2552L11.9931 33.2552L11.5271 33.4363ZM10.9762 30.4654L11.4757 30.4426L11.4757 30.4426L10.9762 30.4654ZM10.9762 17.5346L11.4757 17.5574L11.4757 17.5574L10.9762 17.5346ZM11.5271 14.5637L11.9931 14.7448L11.9931 14.7448L11.5271 14.5637ZM12.724 12.724L13.0775 13.0775L13.0775 13.0775L12.724 12.724ZM14.5637 11.5271L14.7448 11.9931L14.7448 11.9931L14.5637 11.5271ZM17.5346 10.9762L17.5574 11.4757L17.5574 11.4757L17.5346 10.9762ZM24 7.5C19.6522 7.5 19.0984 7.51842 17.3804 7.5968L17.426 8.59576C19.1212 8.51842 19.6571 8.5 24 8.5V7.5ZM17.3804 7.5968C15.63 7.67664 14.4126 7.95642 13.3383 8.37397L13.7005 9.30605C14.6616 8.9325 15.7704 8.67128 17.426 8.59577L17.3804 7.5968ZM13.3383 8.37396C12.2262 8.8061 11.2739 9.3899 10.3319 10.3319L11.039 11.039C11.876 10.202 12.7084 9.69157 13.7005 9.30606L13.3383 8.37396ZM10.3319 10.3319C9.3899 11.2739 8.8061 12.2262 8.37396 13.3383L9.30606 13.7005C9.69157 12.7084 10.202 11.876 11.039 11.039L10.3319 10.3319ZM8.37397 13.3383C7.95642 14.4126 7.67664 15.63 7.5968 17.3804L8.59577 17.426C8.67128 15.7704 8.9325 14.6616 9.30605 13.7005L8.37397 13.3383ZM7.5968 17.3804C7.51842 19.0984 7.5 19.6522 7.5 24H8.5C8.5 19.6571 8.51842 19.1212 8.59576 17.426L7.5968 17.3804ZM7.5 24C7.5 28.3478 7.51842 28.9016 7.5968 30.6196L8.59576 30.574C8.51842 28.8788 8.5 28.3429 8.5 24H7.5ZM7.5968 30.6196C7.67664 32.37 7.95642 33.5874 8.37397 34.6617L9.30605 34.2995C8.9325 33.3384 8.67128 32.2296 8.59577 30.574L7.5968 30.6196ZM8.37396 34.6617C8.8061 35.7738 9.3899 36.7261 10.3319 37.6681L11.039 36.961C10.202 36.124 9.69157 35.2916 9.30606 34.2995L8.37396 34.6617ZM10.3319 37.6681C11.2739 38.6101 12.2261 39.1939 13.3383 39.6261L13.7005 38.694C12.7084 38.3084 11.876 37.798 11.039 36.961L10.3319 37.6681ZM13.3383 39.6261C14.4126 40.0436 15.63 40.3234 17.3804 40.4032L17.426 39.4042C15.7704 39.3287 14.6616 39.0675 13.7005 38.694L13.3383 39.6261ZM17.3804 40.4032C19.0984 40.4816 19.6522 40.5 24 40.5V39.5C19.6571 39.5 19.1212 39.4816 17.426 39.4042L17.3804 40.4032ZM24 40.5C28.3478 40.5 28.9016 40.4816 30.6196 40.4032L30.574 39.4042C28.8788 39.4816 28.3429 39.5 24 39.5V40.5ZM30.6196 40.4032C32.37 40.3234 33.5874 40.0436 34.6617 39.6261L34.2995 38.694C33.3384 39.0675 32.2296 39.3287 30.574 39.4042L30.6196 40.4032ZM34.6617 39.6261C35.7739 39.1939 36.7261 38.6101 37.6681 37.6681L36.961 36.961C36.124 37.798 35.2916 38.3084 34.2995 38.694L34.6617 39.6261ZM37.6681 37.6681C38.6101 36.7261 39.1939 35.7739 39.6261 34.6617L38.694 34.2995C38.3084 35.2916 37.798 36.124 36.961 36.961L37.6681 37.6681ZM39.6261 34.6617C40.0436 33.5874 40.3234 32.37 40.4032 30.6196L39.4042 30.574C39.3287 32.2296 39.0675 33.3384 38.694 34.2995L39.6261 34.6617ZM40.4032 30.6196C40.4816 28.9016 40.5 28.3478 40.5 24H39.5C39.5 28.3429 39.4816 28.8788 39.4042 30.574L40.4032 30.6196ZM40.5 24C40.5 19.6522 40.4816 19.0984 40.4032 17.3804L39.4042 17.426C39.4816 19.1212 39.5 19.6571 39.5 24H40.5ZM40.4032 17.3804C40.3234 15.63 40.0436 14.4126 39.6261 13.3383L38.694 13.7005C39.0675 14.6616 39.3287 15.7704 39.4042 17.426L40.4032 17.3804ZM39.6261 13.3383C39.1939 12.2261 38.6101 11.2739 37.6681 10.3319L36.961 11.039C37.798 11.876 38.3084 12.7084 38.694 13.7005L39.6261 13.3383ZM37.6681 10.3319C36.7261 9.3899 35.7738 8.8061 34.6617 8.37396L34.2995 9.30606C35.2916 9.69157 36.124 10.202 36.961 11.039L37.6681 10.3319ZM34.6617 8.37397C33.5874 7.95642 32.37 7.67664 30.6196 7.5968L30.574 8.59577C32.2296 8.67128 33.3384 8.9325 34.2995 9.30605L34.6617 8.37397ZM30.6196 7.5968C28.9016 7.51842 28.3478 7.5 24 7.5V8.5C28.3429 8.5 28.8788 8.51842 30.574 8.59576L30.6196 7.5968ZM24 11.3829C28.27 11.3829 28.767 11.3992 30.4426 11.4757L30.4882 10.4767C28.7895 10.3992 28.2743 10.3829 24 10.3829V11.3829ZM30.4426 11.4757C31.9475 11.5443 32.7412 11.7934 33.2552 11.9931L33.6175 11.061C33.0039 10.8226 32.1033 10.5503 30.4881 10.4767L30.4426 11.4757ZM33.2552 11.9931C33.9382 12.2586 34.4123 12.5673 34.9225 13.0775L35.6296 12.3704C35.0201 11.7608 34.4282 11.3761 33.6175 11.061L33.2552 11.9931ZM34.9225 13.0775C35.4327 13.5877 35.7414 14.0618 36.0069 14.7448L36.939 14.3825C36.6239 13.5719 36.2392 12.9799 35.6296 12.3704L34.9225 13.0775ZM36.0069 14.7448C36.2066 15.2588 36.4557 16.0525 36.5243 17.5574L37.5233 17.5119C37.4497 15.8967 37.1774 14.9961 36.939 14.3825L36.0069 14.7448ZM36.5243 17.5574C36.6008 19.233 36.6171 19.73 36.6171 24H37.6171C37.6171 19.7257 37.6008 19.2105 37.5233 17.5118L36.5243 17.5574ZM36.6171 24C36.6171 28.27 36.6008 28.767 36.5243 30.4426L37.5233 30.4882C37.6008 28.7895 37.6171 28.2743 37.6171 24H36.6171ZM36.5243 30.4426C36.4557 31.9475 36.2066 32.7412 36.0069 33.2552L36.939 33.6175C37.1774 33.0039 37.4497 32.1033 37.5233 30.4881L36.5243 30.4426ZM36.0069 33.2552C35.7414 33.9382 35.4327 34.4123 34.9225 34.9225L35.6296 35.6296C36.2392 35.0201 36.6239 34.4282 36.939 33.6175L36.0069 33.2552ZM34.9225 34.9225C34.4123 35.4327 33.9382 35.7414 33.2552 36.0069L33.6175 36.939C34.4282 36.6239 35.0201 36.2392 35.6296 35.6296L34.9225 34.9225ZM33.2552 36.0069C32.7412 36.2066 31.9475 36.4557 30.4426 36.5243L30.4881 37.5233C32.1033 37.4497 33.0039 37.1774 33.6175 36.939L33.2552 36.0069ZM30.4426 36.5243C28.7673 36.6008 28.2703 36.6171 24 36.6171V37.6171C28.2746 37.6171 28.7897 37.6008 30.4882 37.5233L30.4426 36.5243ZM24 36.6171C19.7297 36.6171 19.2328 36.6008 17.5574 36.5243L17.5118 37.5233C19.2104 37.6008 19.7254 37.6171 24 37.6171V36.6171ZM17.5574 36.5243C16.0525 36.4557 15.2588 36.2066 14.7448 36.0069L14.3825 36.939C14.9961 37.1774 15.8967 37.4497 17.5119 37.5233L17.5574 36.5243ZM14.7448 36.0069C14.0618 35.7414 13.5877 35.4327 13.0775 34.9225L12.3704 35.6296C12.9799 36.2392 13.5719 36.6239 14.3825 36.939L14.7448 36.0069ZM13.0775 34.9225C12.5673 34.4123 12.2586 33.9382 11.9931 33.2552L11.061 33.6175C11.3761 34.4282 11.7609 35.0201 12.3704 35.6296L13.0775 34.9225ZM11.9931 33.2552C11.7934 32.7412 11.5443 31.9475 11.4757 30.4426L10.4767 30.4881C10.5503 32.1033 10.8226 33.0039 11.061 33.6175L11.9931 33.2552ZM11.4757 30.4426C11.3992 28.767 11.3829 28.27 11.3829 24H10.3829C10.3829 28.2743 10.3992 28.7895 10.4767 30.4882L11.4757 30.4426ZM11.3829 24C11.3829 19.73 11.3992 19.233 11.4757 17.5574L10.4767 17.5118C10.3992 19.2105 10.3829 19.7257 10.3829 24H11.3829ZM11.4757 17.5574C11.5443 16.0525 11.7934 15.2588 11.9931 14.7448L11.061 14.3825C10.8226 14.9961 10.5503 15.8967 10.4767 17.5119L11.4757 17.5574ZM11.9931 14.7448C12.2586 14.0618 12.5673 13.5877 13.0775 13.0775L12.3704 12.3704C11.7608 12.9799 11.3761 13.5719 11.061 14.3825L11.9931 14.7448ZM13.0775 13.0775C13.5877 12.5673 14.0618 12.2586 14.7448 11.9931L14.3825 11.061C13.5719 11.3761 12.9799 11.7608 12.3704 12.3704L13.0775 13.0775ZM14.7448 11.9931C15.2588 11.7934 16.0525 11.5443 17.5574 11.4757L17.5119 10.4767C15.8967 10.5503 14.9961 10.8226 14.3825 11.061L14.7448 11.9931ZM17.5574 11.4757C19.233 11.3992 19.73 11.3829 24 11.3829V10.3829C19.7257 10.3829 19.2105 10.3992 17.5118 10.4767L17.5574 11.4757Z" fill="#F7F7F7"/>
<path fill-rule="evenodd" clip-rule="evenodd" d="M23.9994 29.3337C21.0539 29.3337 18.6661 26.9459 18.6661 24.0004C18.6661 21.0549 21.0539 18.6671 23.9994 18.6671C26.9449 18.6671 29.3327 21.0549 29.3327 24.0004C29.3327 26.9459 26.9449 29.3337 23.9994 29.3337ZM23.9994 15.7842C19.4617 15.7842 15.7832 19.4627 15.7832 24.0004C15.7832 28.5381 19.4617 32.2166 23.9994 32.2166C28.5371 32.2166 32.2156 28.5381 32.2156 24.0004C32.2156 19.4627 28.5371 15.7842 23.9994 15.7842Z" fill="#252525"/>
<path d="M23.9994 28.8337C21.33 28.8337 19.1661 26.6698 19.1661 24.0004H18.1661C18.1661 27.2221 20.7777 29.8337 23.9994 29.8337V28.8337ZM19.1661 24.0004C19.1661 21.331 21.33 19.1671 23.9994 19.1671V18.1671C20.7777 18.1671 18.1661 20.7787 18.1661 24.0004H19.1661ZM23.9994 19.1671C26.6688 19.1671 28.8327 21.331 28.8327 24.0004H29.8327C29.8327 20.7787 27.2211 18.1671 23.9994 18.1671V19.1671ZM28.8327 24.0004C28.8327 26.6698 26.6688 28.8337 23.9994 28.8337V29.8337C27.2211 29.8337 29.8327 27.2221 29.8327 24.0004H28.8327ZM23.9994 15.2842C19.1856 15.2842 15.2832 19.1865 15.2832 24.0004H16.2832C16.2832 19.7388 19.7378 16.2842 23.9994 16.2842V15.2842ZM15.2832 24.0004C15.2832 28.8143 19.1856 32.7166 23.9994 32.7166V31.7166C19.7378 31.7166 16.2832 28.262 16.2832 24.0004H15.2832ZM23.9994 32.7166C28.8133 32.7166 32.7156 28.8142 32.7156 24.0004H31.7156C31.7156 28.262 28.261 31.7166 23.9994 31.7166V32.7166ZM32.7156 24.0004C32.7156 19.1865 28.8133 15.2842 23.9994 15.2842V16.2842C28.261 16.2842 31.7156 19.7388 31.7156 24.0004H32.7156Z" fill="#F7F7F7"/>
<path fill-rule="evenodd" clip-rule="evenodd" d="M34.4611 15.4591C34.4611 16.5195 33.6015 17.3791 32.5411 17.3791C31.4807 17.3791 30.6211 16.5195 30.6211 15.4591C30.6211 14.3987 31.4807 13.5391 32.5411 13.5391C33.6015 13.5391 34.4611 14.3987 34.4611 15.4591Z" fill="#252525"/>
<path d="M34.4611 15.4591C34.4611 16.5195 33.6015 17.3791 32.5411 17.3791C31.4807 17.3791 30.6211 16.5195 30.6211 15.4591C30.6211 14.3987 31.4807 13.5391 32.5411 13.5391C33.6015 13.5391 34.4611 14.3987 34.4611 15.4591" stroke="#F7F7F7"/>
</svg>
