<svg width="48" height="48" viewBox="0 0 48 48" fill="none" xmlns="http://www.w3.org/2000/svg">
<path fill-rule="evenodd" clip-rule="evenodd" d="M10.2604 31.7833L8 40L16.4466 37.7954C18.7827 39.0619 21.4003 39.7255 24.0603 39.7257H24.0671C32.8481 39.7257 39.9963 32.6112 40 23.8687C40.0017 19.6607 38.3238 15.6244 35.3356 12.6483C32.3474 9.67211 28.2937 8.00002 24.0668 8C15.2842 8 8.13728 15.113 8.13376 23.8559C8.13035 26.6386 8.86387 29.3729 10.2604 31.7833ZM17.3217 35.21L16.8379 34.9245L11.8258 36.2327L13.1638 31.3694L12.8485 30.8708C11.5223 28.7699 10.8204 26.3382 10.8241 23.8569C10.827 16.5901 16.7674 10.6783 24.0721 10.6783C31.3859 10.6812 37.3126 16.5862 37.3097 23.8674C37.3067 31.1347 31.366 37.0473 24.0671 37.0473H24.062C21.6904 37.0475 19.3624 36.4129 17.3217 35.21Z" fill="#252525"/>
<path d="M8 40L7.51791 39.8674L7.28816 40.7025L8.12627 40.4838L8 40ZM10.2604 31.7833L10.7425 31.916L10.7981 31.714L10.693 31.5327L10.2604 31.7833ZM16.4466 37.7954L16.6849 37.3558L16.5114 37.2617L16.3204 37.3116L16.4466 37.7954ZM24.0603 39.7257L24.0602 40.2257H24.0603V39.7257ZM40 23.8687L40.5 23.8689V23.8689L40 23.8687ZM24.0668 8L24.0668 7.5H24.0668V8ZM8.13376 23.8559L8.63376 23.8565L8.63376 23.8561L8.13376 23.8559ZM16.8379 34.9245L17.092 34.4939L16.9129 34.3881L16.7116 34.4407L16.8379 34.9245ZM17.3217 35.21L17.0676 35.6406L17.0678 35.6407L17.3217 35.21ZM11.8258 36.2327L11.3437 36.1001L11.1139 36.9353L11.952 36.7165L11.8258 36.2327ZM13.1638 31.3694L13.6459 31.502L13.7045 31.2889L13.5864 31.1022L13.1638 31.3694ZM12.8485 30.8708L12.4257 31.1377L12.4259 31.138L12.8485 30.8708ZM10.8241 23.8569L11.3241 23.8577L11.3241 23.8571L10.8241 23.8569ZM24.0721 10.6783L24.0723 10.1783H24.0721V10.6783ZM37.3097 23.8674L37.8097 23.8676V23.8676L37.3097 23.8674ZM24.062 37.0473V36.5473H24.0619L24.062 37.0473ZM8.48209 40.1326L10.7425 31.916L9.7783 31.6507L7.51791 39.8674L8.48209 40.1326ZM16.3204 37.3116L7.87373 39.5162L8.12627 40.4838L16.5729 38.2792L16.3204 37.3116ZM24.0603 39.2257C21.4834 39.2255 18.9478 38.5826 16.6849 37.3558L16.2083 38.2349C18.6176 39.5412 21.3171 40.2255 24.0602 40.2257L24.0603 39.2257ZM24.0671 39.2257H24.0603V40.2257H24.0671V39.2257ZM39.5 23.8685C39.4964 32.3329 32.5741 39.2257 24.0671 39.2257V40.2257C33.1222 40.2257 40.4961 32.8895 40.5 23.8689L39.5 23.8685ZM34.9827 13.0025C37.877 15.885 39.5017 19.7938 39.5 23.8685L40.5 23.8689C40.5018 19.5275 38.7707 15.3638 35.6884 12.294L34.9827 13.0025ZM24.0668 8.5C28.1618 8.50002 32.0885 10.1199 34.9827 13.0025L35.6884 12.294C32.6062 9.22428 28.4256 7.50002 24.0668 7.5L24.0668 8.5ZM8.63376 23.8561C8.63717 15.3913 15.5581 8.5 24.0668 8.5V7.5C15.0102 7.5 7.63739 14.8346 7.63376 23.8557L8.63376 23.8561ZM10.693 31.5327C9.34069 29.1985 8.63046 26.5508 8.63376 23.8565L7.63376 23.8553C7.63024 26.7263 8.38706 29.5473 9.82776 32.034L10.693 31.5327ZM16.5838 35.3551L17.0676 35.6406L17.5758 34.7794L17.092 34.4939L16.5838 35.3551ZM11.952 36.7165L16.9642 35.4083L16.7116 34.4407L11.6995 35.7489L11.952 36.7165ZM12.6817 31.2368L11.3437 36.1001L12.3079 36.3654L13.6459 31.502L12.6817 31.2368ZM12.4259 31.138L12.7412 31.6366L13.5864 31.1022L13.2711 30.6036L12.4259 31.138ZM10.3241 23.8562C10.3203 26.4323 11.049 28.9568 12.4257 31.1377L13.2713 30.6039C11.9956 28.583 11.3205 26.2441 11.3241 23.8577L10.3241 23.8562ZM24.0721 10.1783C16.4936 10.1783 10.3271 16.3117 10.3241 23.8567L11.3241 23.8571C11.3269 16.8686 17.0412 11.1783 24.0721 11.1783V10.1783ZM37.8097 23.8676C37.8127 16.3081 31.6602 10.1813 24.0723 10.1783L24.0719 11.1783C31.1117 11.1811 36.8125 16.8642 36.8097 23.8672L37.8097 23.8676ZM24.0671 37.5473C31.6401 37.5473 37.8066 31.413 37.8097 23.8676L36.8097 23.8672C36.8068 30.8564 31.092 36.5473 24.0671 36.5473V37.5473ZM24.062 37.5473H24.0671V36.5473H24.062V37.5473ZM17.0678 35.6407C19.1855 36.8891 21.6012 37.5475 24.062 37.5473L24.0619 36.5473C21.7795 36.5475 19.5392 35.9368 17.5756 34.7792L17.0678 35.6407Z" fill="#F7F7F7"/>
<path d="M20.0849 17.227C19.787 16.567 19.4727 16.5537 19.1891 16.5425C18.957 16.5326 18.6914 16.5332 18.4261 16.5332C18.0182 16.5438 17.6333 16.7236 17.3643 17.0291C16.9993 17.4257 15.9707 18.3844 15.9707 20.3343C15.9707 22.2842 17.3974 24.1687 17.5963 24.4336C17.7953 24.6985 20.3505 28.8272 24.3969 30.4159C27.7598 31.7361 28.4442 31.4735 29.1742 31.4074C29.9042 31.3414 31.5295 30.4492 31.8613 29.5234C32.1932 28.5976 32.1931 27.8046 32.0935 27.6391C31.994 27.4736 31.7285 27.3749 31.3304 27.1767C30.9322 26.9785 28.9751 26.0196 28.6101 25.8874C28.2451 25.7552 27.9797 25.6892 27.7142 26.086C27.4488 26.4829 26.6863 27.3749 26.4537 27.6391C26.2212 27.9033 25.9892 27.937 25.591 27.7388C25.1929 27.5406 23.9104 27.1219 22.3896 25.7718C21.2062 24.7213 20.4072 23.424 20.1749 23.0273C19.9427 22.6305 20.15 22.4162 20.3497 22.2186C20.5285 22.0411 20.7479 21.756 20.9469 21.5245C21.146 21.2931 21.212 21.1279 21.3447 20.8636C21.4775 20.5994 21.411 20.3676 21.3115 20.1694C21.212 19.9712 20.4389 18.0107 20.0849 17.227Z" fill="#252525" stroke="#F7F7F7"/>
</svg>
